<svg xmlns="http://www.w3.org/2000/svg" width="400" height="100" viewBox="0 0 400 100"><rect width="100%" height="100%" fill="#1E3A5F"/><path fill="#FFF" d="M97.775 36.305v3.42h-6.76v18.99h-4.17v-18.99h-6.76v-3.42zm9.38 6.26q1.76 0 3.21.57 1.45.58 2.48 1.63t1.59 2.57.56 3.4q0 1.89-.56 3.41t-1.59 2.59-2.48 1.64-3.21.57q-1.79 0-3.24-.57-1.46-.57-2.49-1.64t-1.6-2.59q-.56-1.52-.56-3.41 0-1.88.56-3.4.57-1.52 1.6-2.57t2.49-1.63q1.45-.57 3.24-.57m0 13.44q1.98 0 2.93-1.34.96-1.33.96-3.9t-.96-3.92q-.95-1.35-2.93-1.35-2.02 0-2.99 1.35-.97 1.36-.97 3.92t.97 3.9 2.99 1.34m14.6-8.54v7.13q.65.79 1.42 1.11.76.33 1.66.33.87 0 1.57-.33.69-.32 1.18-.99t.75-1.68q.27-1.02.27-2.4 0-1.39-.23-2.36-.22-.97-.64-1.57-.42-.61-1.01-.89-.6-.28-1.36-.28-1.19 0-2.03.51-.84.5-1.58 1.42m-.51-3.96.31 1.48q.97-1.1 2.21-1.79 1.24-.68 2.92-.68 1.3 0 2.38.55 1.07.54 1.86 1.57.78 1.03 1.2 2.54.43 1.51.43 3.46 0 1.79-.48 3.31t-1.37 2.63q-.89 1.12-2.16 1.74-1.26.63-2.82.63-1.34 0-2.28-.41-.95-.41-1.69-1.14v6.51h-3.83v-21.09h2.34q.74 0 .98.69m14.33-7.82h3.83v23.03h-3.83zm7.78 7.13h3.85v15.9h-3.85zm4.38-4.64q0 .5-.21.93-.2.44-.53.76-.33.33-.78.52t-.96.19q-.5 0-.94-.19t-.77-.52q-.33-.32-.52-.76-.19-.43-.19-.93 0-.51.19-.96t.52-.77q.33-.33.77-.52.44-.2.94-.2.51 0 .96.2.45.19.78.52.33.32.53.77.21.45.21.96m6.69 5.33.26 1.26q.49-.48 1.02-.89t1.13-.7 1.28-.45 1.49-.16q1.3 0 2.31.44t1.68 1.24 1.02 1.91.35 2.44v10.12h-3.83v-10.12q0-1.46-.66-2.26-.67-.8-2.03-.8-1 0-1.86.45-.87.45-1.65 1.23v11.5h-3.83v-15.9h2.34q.75 0 .98.69m17.19 5.43h7.22q0-.74-.21-1.4-.2-.66-.62-1.16-.42-.49-1.06-.78-.65-.29-1.5-.29-1.66 0-2.61.95-.96.94-1.22 2.68m9.77 2.31h-9.85q.1 1.22.44 2.11.34.9.9 1.48.55.58 1.32.87.77.28 1.7.28t1.6-.21q.68-.22 1.18-.49.5-.26.88-.48.38-.21.74-.21.48 0 .71.35l1.1 1.4q-.63.74-1.42 1.25-.79.5-1.65.8t-1.75.43q-.9.12-1.73.12-1.66 0-3.09-.55-1.42-.55-2.48-1.63-1.05-1.07-1.66-2.66-.6-1.59-.6-3.68 0-1.63.53-3.06.52-1.44 1.51-2.5.98-1.06 2.4-1.68t3.2-.62q1.51 0 2.78.48t2.18 1.4q.92.92 1.44 2.27.51 1.34.51 3.06 0 .86-.18 1.17-.19.3-.71.3m16.07-3.67h3.11q1.15 0 2-.29.86-.29 1.42-.82.57-.54.85-1.3.28-.77.28-1.72 0-.9-.28-1.62-.28-.73-.84-1.25-.56-.51-1.41-.78t-2.02-.27h-3.11zm-4.17-11.27h7.28q2.25 0 3.9.52 1.64.53 2.71 1.48 1.07.94 1.59 2.26t.52 2.88q0 1.63-.55 2.99-.54 1.35-1.62 2.33-1.09.98-2.72 1.52-1.64.54-3.83.54h-3.11v7.89h-4.17zm18.63-.62h3.83v23.03h-3.83zm17.53 7.13h3.83v15.9h-2.34q-.76 0-.96-.7l-.27-1.27q-.97.99-2.15 1.61-1.18.61-2.77.61-1.31 0-2.31-.44-1-.45-1.68-1.25-.68-.81-1.03-1.92-.35-1.1-.35-2.44v-10.1h3.83v10.1q0 1.46.68 2.26.67.8 2.02.8.99 0 1.86-.45.87-.44 1.64-1.21zm11.44 15.9h-3.83v-15.9h2.34q.75 0 .98.69l.25 1.18q.42-.46.87-.85.46-.39.98-.67t1.12-.44q.59-.16 1.3-.16 1.51 0 2.48.81.97.82 1.45 2.16.37-.79.93-1.35.55-.57 1.22-.92.67-.36 1.42-.53t1.51-.17q1.32 0 2.34.4t1.72 1.18 1.06 1.89q.37 1.12.37 2.56v10.12h-3.83v-10.12q0-1.52-.67-2.29-.66-.77-1.95-.77-.59 0-1.09.21-.51.2-.89.58t-.59.95q-.22.57-.22 1.32v10.12h-3.84v-10.12q0-1.6-.65-2.33-.64-.73-1.88-.73-.84 0-1.56.42-.72.41-1.34 1.12zm25.96-11.25v7.13q.65.79 1.42 1.11.77.33 1.62.33.88 0 1.59-.32.7-.32 1.2-.99.5-.68.76-1.72.26-1.05.26-2.5 0-2.62-.86-3.79-.87-1.18-2.5-1.18-1.1 0-1.92.51-.82.5-1.57 1.42m0-11.78v9.08q.96-1.01 2.13-1.6 1.17-.6 2.68-.6 1.38 0 2.49.54 1.1.54 1.89 1.56.78 1.01 1.2 2.46.42 1.44.42 3.24 0 1.93-.48 3.51-.48 1.59-1.38 2.71-.89 1.12-2.14 1.74-1.26.62-2.79.62-.75 0-1.35-.14-.61-.15-1.12-.42-.51-.26-.93-.64-.43-.38-.82-.84l-.17 1.07q-.09.4-.32.57-.22.17-.61.17h-2.53v-23.03zm13.89 7.13h3.84v15.9h-3.84zm4.37-4.64q0 .5-.2.93-.2.44-.53.76-.34.33-.79.52t-.96.19q-.49 0-.94-.19-.44-.19-.76-.52-.33-.32-.52-.76-.2-.43-.2-.93 0-.51.2-.96.19-.45.52-.77.32-.33.76-.52.45-.2.94-.2.51 0 .96.2.45.19.79.52.33.32.53.77t.2.96m6.7 5.33.26 1.26q.48-.48 1.02-.89.53-.41 1.13-.7.59-.29 1.28-.45.68-.16 1.48-.16 1.31 0 2.31.44 1.01.44 1.69 1.24.67.8 1.02 1.91t.35 2.44v10.12h-3.83v-10.12q0-1.46-.67-2.26-.66-.8-2.03-.8-.99 0-1.86.45t-1.64 1.23v11.5h-3.83v-15.9h2.34q.75 0 .98.69m19.98 6.87q.71 0 1.24-.19.52-.2.87-.54t.53-.82.18-1.05q0-1.18-.71-1.87-.7-.69-2.11-.69t-2.12.69q-.7.69-.7 1.87 0 .56.17 1.04.18.48.53.82.35.35.89.55.53.19 1.23.19m4.32 9.05q0-.46-.28-.76-.28-.29-.76-.45-.48-.17-1.12-.24-.64-.08-1.36-.12-.73-.04-1.49-.07-.77-.03-1.5-.12-.63.35-1.03.83-.39.48-.39 1.12 0 .42.2.78.21.37.67.63t1.19.41 1.78.15q1.07 0 1.84-.17.78-.16 1.28-.44.51-.29.74-.69.23-.39.23-.86m-.76-16.07h4.57v1.43q0 .68-.82.83l-1.42.27q.32.82.32 1.79 0 1.18-.47 2.14-.47.95-1.31 1.61-.84.67-1.98 1.04-1.14.36-2.45.36-.47 0-.9-.05-.44-.04-.85-.12-.75.45-.75 1.01 0 .48.44.7.45.23 1.17.32.73.09 1.66.12.93.02 1.91.1.98.07 1.91.27.93.19 1.65.61.73.42 1.17 1.14.45.72.45 1.85 0 1.06-.52 2.05t-1.51 1.77q-.98.77-2.41 1.24-1.44.48-3.27.48-1.8 0-3.13-.35t-2.22-.93q-.88-.58-1.31-1.34-.44-.76-.44-1.58 0-1.12.68-1.87.67-.75 1.85-1.2-.64-.33-1.01-.87t-.37-1.43q0-.35.13-.73t.39-.76q.26-.37.64-.7.39-.33.92-.6-1.21-.65-1.9-1.73-.69-1.09-.69-2.55 0-1.17.47-2.13.47-.95 1.32-1.62.84-.68 2-1.04 1.15-.35 2.52-.35 1.02 0 1.92.21t1.64.61"/></svg>